# xmcd
#
# Track frame offsets:
#	150
#	15690
#	31125
#	46057
#	60120
#	75052
#	87690
#	103475
#	115657
#	132312
#
# Disc length: 1993 seconds
#
# Revision: 0
# Processed by: cddbd v1.5.2PL0 Copyright (c) Steve Scherf et al.
# Submitted via: audiograbber 1.83.01
#
DISCID=6f07c70a
DTITLE=Ricky Van Shelton - Back Roads
DYEAR=1991
DGENRE=Country
TTITLE0=I Am A Simple Man
TTITLE1=Rockin' Years
TTITLE2=Oh Heart Of Mine
TTITLE3=Some Things Are Better Left Alone
TTITLE4=After The Lights Go Out
TTITLE5=Call Me Up
TTITLE6=If Your Ever In My Arms
TTITLE7=Who'll Turn Out The Lights
TTITLE8=Backroads
TTITLE9=Keep It Between The Lines
EXTD=
EXTT0=
EXTT1=
EXTT2=
EXTT3=
EXTT4=
EXTT5=
EXTT6=
EXTT7=
EXTT8=
EXTT9=
PLAYORDER=
